<svg width="203" height="85" viewBox="0 0 203 85" fill="none" xmlns="http://www.w3.org/2000/svg">
<path d="M54.5098 20.3984C54.5645 22.4219 54.7012 24.4863 54.9199 26.5918C55.1387 28.6699 55.4531 30.8027 55.8633 32.9902L52.7461 33.6465C51.9805 29.7637 50.1484 26.8926 47.25 25.0332C44.3516 23.1738 40.25 22.2441 34.9453 22.2441C27.7812 22.2441 22.2168 24.3496 18.252 28.5605C14.3145 32.7715 12.3457 38.7324 12.3457 46.4434C12.3457 54.7285 14.6016 61.3457 19.1133 66.2949C23.625 71.2441 29.5996 73.7188 37.0371 73.7188C38.5957 73.7188 40.168 73.5684 41.7539 73.2676C43.3398 72.9395 45.0215 72.4473 46.7988 71.791C46.8809 69.6855 46.9355 67.8945 46.9629 66.418C47.0176 64.9414 47.0449 63.7383 47.0449 62.8086C47.0449 58.1328 46.5254 55.3301 45.4863 54.4004C44.4473 53.4434 42.1641 52.9648 38.6367 52.9648H38.0625V50.2168C40.3867 50.3262 42.5332 50.4082 44.502 50.4629C46.498 50.5176 48.1797 50.5449 49.5469 50.5449C51.543 50.5449 53.4023 50.5176 55.125 50.4629C56.875 50.4082 58.543 50.3262 60.1289 50.2168V52.9648C57.832 52.9648 56.3281 53.416 55.6172 54.3184C54.9336 55.1934 54.5918 57.9414 54.5918 62.5625V66.8281C54.5918 68.9336 54.6191 70.5742 54.6738 71.75C54.7285 72.8984 54.8105 74.0059 54.9199 75.0723C54.0176 75.2637 52.6641 75.5645 50.8594 75.9746C43.7773 77.5605 38.418 78.3535 34.7812 78.3535C25.293 78.3535 17.6914 75.5918 11.9766 70.0684C6.28906 64.5449 3.44531 57.2168 3.44531 48.084C3.44531 38.9512 6.50781 31.5273 12.6328 25.8125C18.7852 20.0703 26.7559 17.1992 36.5449 17.1992C39.498 17.1992 42.4648 17.4727 45.4453 18.0195C48.4531 18.5391 51.4746 19.332 54.5098 20.3984Z" fill="black"/>
<path d="M81.035 57.5502C80.225 58.8402 79.22 59.8902 78.02 60.7002C76.82 61.5102 75.305 61.9152 73.475 61.9152C72.635 61.9152 71.81 61.8102 71 61.6002C70.22 61.3902 69.5 61.0602 68.84 60.6102C68.21 60.1602 67.655 59.5752 67.175 58.8552C66.695 58.1052 66.35 57.2052 66.14 56.1552C66.08 55.8852 66.02 55.5852 65.96 55.2552C65.93 54.9252 65.9 54.5052 65.87 53.9952C65.87 53.4552 65.855 52.8102 65.825 52.0602C65.825 51.2802 65.825 50.3202 65.825 49.1802V45.1302C65.825 44.8002 65.75 44.4702 65.6 44.1402C65.45 43.8102 65.33 43.6002 65.24 43.5102C64.94 43.1502 64.565 42.9402 64.115 42.8802C63.665 42.8202 63.2 42.7902 62.72 42.7902L62.585 42.6102V41.0802L62.72 40.9452H64.925C65.615 40.9452 66.35 40.9452 67.13 40.9452C67.91 40.9152 68.6 40.8552 69.2 40.7652L70.775 40.5402L71.045 41.3952C70.985 41.5152 70.94 41.7402 70.91 42.0702C70.88 42.3702 70.85 42.7002 70.82 43.0602C70.79 43.4202 70.775 43.7652 70.775 44.0952C70.775 44.4252 70.775 44.6802 70.775 44.8602C70.775 45.2502 70.76 45.7302 70.73 46.3002C70.73 46.8402 70.715 47.4102 70.685 48.0102C70.685 48.5802 70.67 49.1352 70.64 49.6752C70.64 50.2152 70.64 50.6652 70.64 51.0252C70.64 51.8052 70.67 52.6002 70.73 53.4102C70.79 54.1902 70.91 54.9102 71.09 55.5702C71.39 56.6202 71.84 57.4002 72.44 57.9102C73.07 58.3902 73.94 58.6302 75.05 58.6302C75.95 58.6302 76.745 58.4802 77.435 58.1802C78.155 57.8802 78.77 57.5202 79.28 57.1002C79.79 56.6802 80.21 56.2302 80.54 55.7502C80.87 55.2402 81.08 54.7902 81.17 54.4002V49.9002C81.17 48.5202 81.14 47.4552 81.08 46.7052C81.05 45.9552 81.005 45.3702 80.945 44.9502C80.885 44.5602 80.795 44.2452 80.675 44.0052C80.585 43.7652 80.495 43.6002 80.405 43.5102C80.075 43.1502 79.655 42.9402 79.145 42.8802C78.635 42.8202 78.23 42.7902 77.93 42.7902L77.75 42.6102V41.0802L77.93 40.9452H78.74C79.04 40.9452 79.43 40.9452 79.91 40.9452C80.42 40.9452 80.945 40.9452 81.485 40.9452C82.025 40.9152 82.55 40.9002 83.06 40.9002C83.57 40.8702 84.005 40.8252 84.365 40.7652L85.94 40.5402L86.21 41.3952C86.06 42.2652 85.955 43.4052 85.895 44.8152C85.865 45.5652 85.835 46.1802 85.805 46.6602C85.805 47.1102 85.805 47.4852 85.805 47.7852C85.805 48.0852 85.805 48.3252 85.805 48.5052C85.805 48.6552 85.805 48.8052 85.805 48.9552V52.6452C85.805 54.2952 85.85 55.7502 85.94 57.0102C86 57.5802 86.075 58.0452 86.165 58.4052C86.255 58.7352 86.42 59.0052 86.66 59.2152C86.93 59.4552 87.245 59.6052 87.605 59.6652C87.965 59.6952 88.4 59.7102 88.91 59.7102L89.09 59.8902L89.18 61.4202L89.09 61.5552C88.52 61.4952 87.965 61.4502 87.425 61.4202C86.885 61.4202 86.255 61.4202 85.535 61.4202C84.815 61.4202 84.05 61.4202 83.24 61.4202C82.43 61.4502 81.65 61.4952 80.9 61.5552L80.63 60.6552C80.72 60.3252 80.81 59.8902 80.9 59.3502C81.02 58.7802 81.11 58.2102 81.17 57.6402L81.035 57.5502ZM111.054 49.9452L109.974 50.7552C108.354 50.7552 106.749 50.7702 105.159 50.8002C103.599 50.8302 101.994 50.8452 100.344 50.8452H96.6542C96.6242 51.0552 96.6092 51.2652 96.6092 51.4752C96.6092 51.6552 96.6092 51.8352 96.6092 52.0152C96.6092 52.7952 96.7442 53.5752 97.0142 54.3552C97.2842 55.1352 97.7042 55.8402 98.2742 56.4702C98.8742 57.0702 99.6242 57.5652 100.524 57.9552C101.424 58.3152 102.519 58.4952 103.809 58.4952C104.739 58.4952 105.714 58.3752 106.734 58.1352C107.784 57.8652 108.759 57.5202 109.659 57.1002L110.424 57.4152V59.0352L109.974 59.5302C109.254 60.1002 108.189 60.6402 106.779 61.1502C105.399 61.6602 103.899 61.9152 102.279 61.9152C100.689 61.9152 99.2342 61.6602 97.9142 61.1502C96.6242 60.6102 95.4992 59.8602 94.5392 58.9002C93.6092 57.9402 92.8742 56.8002 92.3342 55.4802C91.8242 54.1602 91.5692 52.6902 91.5692 51.0702C91.5692 49.4202 91.8392 47.9202 92.3792 46.5702C92.9192 45.2202 93.6542 44.0652 94.5842 43.1052C95.5442 42.1452 96.6542 41.3952 97.9142 40.8552C99.2042 40.3152 100.584 40.0452 102.054 40.0452C102.834 40.0452 103.704 40.1502 104.664 40.3602C105.654 40.5702 106.599 40.9752 107.499 41.5752C108.399 42.1452 109.209 42.9702 109.929 44.0502C110.649 45.1002 111.144 46.4952 111.414 48.2352L111.054 49.9452ZM102.099 43.4202C100.629 43.4202 99.4442 43.8702 98.5442 44.7702C97.6742 45.6402 97.1192 46.6602 96.8792 47.8302H99.1292C100.179 47.8302 101.214 47.8152 102.234 47.7852C103.254 47.7252 104.289 47.6952 105.339 47.6952C105.729 47.6952 106.014 47.5902 106.194 47.3802C106.374 47.1402 106.464 46.9002 106.464 46.6602C106.464 45.7602 106.029 44.9952 105.159 44.3652C104.289 43.7352 103.269 43.4202 102.099 43.4202ZM124.592 48.8202C125.852 49.1202 126.872 49.5252 127.652 50.0352C128.432 50.5452 129.017 51.1002 129.407 51.7002C129.827 52.3002 130.097 52.9152 130.217 53.5452C130.367 54.1752 130.442 54.7602 130.442 55.3002C130.442 56.2602 130.247 57.1452 129.857 57.9552C129.467 58.7652 128.897 59.4702 128.147 60.0702C127.427 60.6402 126.542 61.0902 125.492 61.4202C124.442 61.7502 123.257 61.9152 121.937 61.9152C120.557 61.9152 119.267 61.7652 118.067 61.4652C116.867 61.1952 115.922 60.8652 115.232 60.4752L114.692 59.8902L115.367 54.3552H116.852L116.987 54.5352C116.987 55.8552 117.392 56.9052 118.202 57.6852C119.012 58.4352 120.212 58.8102 121.802 58.8102C122.642 58.8102 123.347 58.7352 123.917 58.5852C124.517 58.4052 124.982 58.1952 125.312 57.9552C125.672 57.6852 125.927 57.4002 126.077 57.1002C126.227 56.7702 126.302 56.4702 126.302 56.2002C126.302 55.9902 126.287 55.7652 126.257 55.5252C126.227 55.2852 126.137 55.0452 125.987 54.8052C125.837 54.5352 125.612 54.2802 125.312 54.0402C125.012 53.7702 124.577 53.5452 124.007 53.3652L119.687 52.2852C118.697 52.0452 117.887 51.7002 117.257 51.2502C116.627 50.8002 116.117 50.3052 115.727 49.7652C115.367 49.1952 115.112 48.5952 114.962 47.9652C114.842 47.3352 114.782 46.7052 114.782 46.0752C114.782 45.0852 114.977 44.2152 115.367 43.4652C115.757 42.6852 116.282 42.0552 116.942 41.5752C117.632 41.0652 118.427 40.6902 119.327 40.4502C120.227 40.1802 121.202 40.0452 122.252 40.0452C123.572 40.0452 124.787 40.2102 125.897 40.5402C127.007 40.8402 127.862 41.1702 128.462 41.5302L129.047 42.0702L128.552 46.4352H127.157L126.977 46.3002C126.977 45.6402 126.797 45.1002 126.437 44.6802C126.107 44.2302 125.687 43.8852 125.177 43.6452C124.697 43.3752 124.187 43.1952 123.647 43.1052C123.107 42.9852 122.627 42.9252 122.207 42.9252C121.007 42.9252 120.152 43.1802 119.642 43.6902C119.132 44.2002 118.877 44.7702 118.877 45.4002C118.877 45.9402 119.042 46.4652 119.372 46.9752C119.732 47.4852 120.407 47.8602 121.397 48.1002L124.592 48.8202ZM145.821 43.4202H140.871C140.871 45.1602 140.856 46.7802 140.826 48.2802C140.826 49.7502 140.826 51.0402 140.826 52.1502C140.826 53.2302 140.811 54.1152 140.781 54.8052C140.781 55.4952 140.781 55.9152 140.781 56.0652C140.781 57.2352 141.006 58.0152 141.456 58.4052C141.906 58.7952 142.431 58.9902 143.031 58.9902C143.481 58.9902 143.991 58.9452 144.561 58.8552C145.131 58.7652 145.611 58.6452 146.001 58.4952L146.271 58.9902L145.821 60.4752C145.011 60.9252 144.171 61.2702 143.301 61.5102C142.461 61.7802 141.681 61.9152 140.961 61.9152C139.131 61.9152 137.826 61.4952 137.046 60.6552C136.266 59.8152 135.876 58.7352 135.876 57.4152C135.876 57.1452 135.891 56.6202 135.921 55.8402C135.951 55.0302 135.981 54.0252 136.011 52.8252C136.041 51.5952 136.071 50.1852 136.101 48.5952C136.131 47.0052 136.146 45.2802 136.146 43.4202H133.806L133.626 43.1952V41.2152L133.806 41.0352L136.146 40.4052C136.146 39.4452 136.116 38.4702 136.056 37.4802C136.026 36.4602 135.981 35.4702 135.921 34.5102L136.236 34.2402L136.866 34.1952C137.076 34.1952 137.361 34.1802 137.721 34.1502C138.111 34.1202 138.516 34.0902 138.936 34.0602C139.356 34.0002 139.746 33.9402 140.106 33.8802C140.496 33.8202 140.781 33.7602 140.961 33.7002L141.366 33.8802C141.216 34.6302 141.096 35.6352 141.006 36.8952C140.916 38.1252 140.871 39.2952 140.871 40.4052L145.821 40.1352L146.046 40.3152V43.1952L145.821 43.4202ZM160.082 61.6002C159.872 61.6002 159.557 61.5852 159.137 61.5552C158.717 61.5252 158.267 61.4952 157.787 61.4652C157.307 61.4652 156.857 61.4502 156.437 61.4202C156.017 61.4202 155.702 61.4202 155.492 61.4202H153.062C152.852 61.4202 152.522 61.4202 152.072 61.4202C151.652 61.4502 151.202 61.4652 150.722 61.4652C150.272 61.4952 149.822 61.5252 149.372 61.5552C148.952 61.5852 148.637 61.6002 148.427 61.6002L148.382 61.4202L148.472 59.8902L148.607 59.7102C149.057 59.7102 149.522 59.6952 150.002 59.6652C150.482 59.6052 150.842 59.4552 151.082 59.2152C151.292 59.0052 151.442 58.7352 151.532 58.4052C151.622 58.0752 151.697 57.6102 151.757 57.0102C151.787 56.8002 151.802 56.5902 151.802 56.3802C151.832 56.1702 151.847 55.9452 151.847 55.7052C151.877 55.4652 151.892 55.1802 151.892 54.8502C151.892 54.5202 151.892 54.1152 151.892 53.6352V48.5502C151.892 47.9802 151.892 47.5302 151.892 47.2002C151.892 46.8402 151.877 46.5402 151.847 46.3002C151.847 46.0602 151.832 45.8502 151.802 45.6702C151.802 45.4602 151.787 45.2202 151.757 44.9502C151.697 44.6502 151.607 44.3652 151.487 44.0952C151.367 43.8252 151.262 43.6452 151.172 43.5552C150.872 43.1652 150.497 42.9402 150.047 42.8802C149.597 42.8202 149.132 42.7902 148.652 42.7902L148.472 42.6102V41.0802L148.652 40.9452H150.947C151.637 40.9452 152.372 40.9452 153.152 40.9452C153.932 40.9152 154.622 40.8552 155.222 40.7652L156.797 40.5402L157.067 41.3952C157.007 41.5152 156.947 41.7102 156.887 41.9802C156.857 42.2202 156.827 42.4902 156.797 42.7902C156.797 43.0602 156.782 43.3452 156.752 43.6452C156.752 43.9152 156.752 44.1402 156.752 44.3202C156.752 44.5602 156.737 44.7852 156.707 44.9952C156.707 45.1752 156.707 45.4002 156.707 45.6702C156.707 45.9102 156.692 46.2252 156.662 46.6152C156.662 47.0052 156.662 47.4852 156.662 48.0552V53.0952C156.662 53.6952 156.662 54.1902 156.662 54.5802C156.692 54.9402 156.707 55.2552 156.707 55.5252C156.737 55.7952 156.752 56.0502 156.752 56.2902C156.782 56.5002 156.812 56.7402 156.842 57.0102C156.902 57.6402 156.962 58.1202 157.022 58.4502C157.112 58.7502 157.277 59.0052 157.517 59.2152C157.757 59.4552 158.087 59.6052 158.507 59.6652C158.957 59.6952 159.407 59.7102 159.857 59.7102L160.082 59.9352L160.172 61.4202L160.082 61.6002ZM150.947 33.8352C150.947 33.4752 151.022 33.1152 151.172 32.7552C151.322 32.3952 151.532 32.0802 151.802 31.8102C152.072 31.5102 152.372 31.2852 152.702 31.1352C153.062 30.9552 153.437 30.8652 153.827 30.8652C154.577 30.8652 155.252 31.1802 155.852 31.8102C156.482 32.4102 156.797 33.0852 156.797 33.8352C156.797 34.2252 156.707 34.6002 156.527 34.9602C156.377 35.2902 156.152 35.5902 155.852 35.8602C155.582 36.1302 155.267 36.3402 154.907 36.4902C154.547 36.6402 154.187 36.7152 153.827 36.7152C153.047 36.7152 152.372 36.4302 151.802 35.8602C151.232 35.2902 150.947 34.6152 150.947 33.8352ZM175.052 43.4202H170.237V49.8102C170.237 50.9502 170.237 51.8952 170.237 52.6452C170.237 53.3952 170.237 54.0402 170.237 54.5802C170.267 55.0902 170.297 55.5402 170.327 55.9302C170.357 56.2902 170.387 56.6502 170.417 57.0102C170.477 57.4602 170.597 57.8952 170.777 58.3152C170.957 58.7052 171.167 59.0052 171.407 59.2152C171.647 59.4552 171.977 59.6052 172.397 59.6652C172.847 59.6952 173.207 59.7102 173.477 59.7102L173.702 59.9352L173.792 61.4202L173.702 61.6002C173.522 61.6002 173.237 61.5852 172.847 61.5552C172.457 61.5252 172.052 61.4952 171.632 61.4652C171.212 61.4652 170.807 61.4502 170.417 61.4202C170.027 61.4202 169.742 61.4202 169.562 61.4202H166.682C166.472 61.4202 166.142 61.4202 165.692 61.4202C165.272 61.4502 164.822 61.4652 164.342 61.4652C163.862 61.4952 163.397 61.5252 162.947 61.5552C162.527 61.5852 162.212 61.6002 162.002 61.6002L161.957 61.4202L162.047 59.8902L162.182 59.7102C162.632 59.7102 163.067 59.6802 163.487 59.6202C163.907 59.5302 164.252 59.3652 164.522 59.1252C164.702 58.9452 164.852 58.7202 164.972 58.4502C165.122 58.1802 165.227 57.7602 165.287 57.1902C165.347 56.6202 165.392 55.8402 165.422 54.8502C165.452 53.8602 165.467 52.5402 165.467 50.8902V43.4202H163.037L162.857 43.1952V41.2602L163.037 41.0802L165.467 40.4052V37.8402C165.467 34.7802 166.172 32.3652 167.582 30.5952C169.022 28.7952 171.122 27.8952 173.882 27.8952C174.572 27.8952 175.322 28.0452 176.132 28.3452C176.942 28.6152 177.782 29.0652 178.652 29.6952L178.877 30.1452L178.337 34.0602H176.717C176.657 33.1902 176.282 32.5002 175.592 31.9902C174.902 31.4802 174.122 31.2252 173.252 31.2252C172.502 31.2252 171.917 31.3602 171.497 31.6302C171.107 31.8702 170.807 32.2002 170.597 32.6202C170.417 33.0102 170.312 33.4752 170.282 34.0152C170.252 34.5552 170.237 35.0952 170.237 35.6352V40.4052L175.052 40.1352L175.277 40.3152V43.1952L175.052 43.4202ZM189.315 66.6402C188.955 67.5402 188.475 68.3502 187.875 69.0702C187.305 69.8202 186.645 70.4652 185.895 71.0052C185.145 71.5452 184.35 71.9802 183.51 72.3102C182.67 72.6702 181.815 72.9102 180.945 73.0302C180.705 73.0902 180.42 73.1202 180.09 73.1202C179.79 73.1202 179.34 73.1202 178.74 73.1202L178.425 73.0302L178.29 70.7352L178.47 70.5102H179.1C179.46 70.5102 179.85 70.4652 180.27 70.3752C180.69 70.3152 181.095 70.1802 181.485 69.9702C182.355 69.5502 183.15 68.9502 183.87 68.1702C184.62 67.3902 185.13 66.6402 185.4 65.9202L186.66 62.5452L183.06 54.3102C182.91 53.9802 182.67 53.3952 182.34 52.5552C182.01 51.7152 181.635 50.8002 181.215 49.8102C180.795 48.7902 180.345 47.7852 179.865 46.7952C179.415 45.8052 178.995 44.9802 178.605 44.3202C178.305 43.8402 177.96 43.4652 177.57 43.1952C177.21 42.9252 176.715 42.7602 176.085 42.7002L175.815 42.4752V40.9452L175.995 40.7652C176.505 40.8252 177.045 40.8852 177.615 40.9452C178.185 41.0052 178.71 41.0352 179.19 41.0352H182.745C183.195 41.0352 183.735 41.0052 184.365 40.9452C185.025 40.8852 185.625 40.8252 186.165 40.7652L186.345 40.9452V42.3852L186.165 42.5652C185.595 42.6252 185.1 42.8052 184.68 43.1052C184.29 43.3752 184.095 43.7802 184.095 44.3202C184.095 44.6802 184.215 45.2802 184.455 46.1202C184.725 46.9302 185.025 47.8002 185.355 48.7302C185.715 49.6602 186.045 50.5302 186.345 51.3402C186.675 52.1202 186.885 52.6452 186.975 52.9152L188.91 58.3602L191.16 52.9152C191.37 52.4352 191.625 51.8352 191.925 51.1152C192.225 50.3652 192.51 49.5852 192.78 48.7752C193.08 47.9652 193.335 47.1702 193.545 46.3902C193.755 45.6102 193.86 44.9202 193.86 44.3202C193.86 43.6602 193.635 43.2252 193.185 43.0152C192.735 42.7752 192.255 42.6252 191.745 42.5652L191.565 42.3852V40.9452L191.745 40.7652C192.315 40.8852 192.855 40.9602 193.365 40.9902C193.875 41.0202 194.355 41.0352 194.805 41.0352H198.45C198.96 41.0352 199.455 41.0052 199.935 40.9452C200.445 40.8852 200.985 40.8252 201.555 40.7652L201.735 40.9452V42.4752L201.465 42.7002C200.955 42.7602 200.505 42.9102 200.115 43.1502C199.755 43.3902 199.41 43.7802 199.08 44.3202C198.63 45.0402 198.12 45.9702 197.55 47.1102C197.01 48.2202 196.47 49.3452 195.93 50.4852C195.42 51.6252 194.955 52.6602 194.535 53.5902C194.115 54.5202 193.845 55.1652 193.725 55.5252L189.315 66.6402Z" fill="black"/>
</svg>
